# xmcd
#
# Track frame offsets: 
#        150
#        14475
#        25597
#        38741
#        55528
#        69559
#        85172
#        96819
#        110251
#        119366
#        133078
#        150723
#        164754
#        177901
#        189604
#        200380
#        208897
#
# Disc length: 2927 seconds
#
# Revision: 0
# Processed by: cddbd v1.5.2PL0 Copyright (c) Steve Scherf et al.
# Submitted via: ExactAudioCopy v0.95b3
#
DISCID=e70b6d11
DTITLE=Bill Frisell - The Willies
DYEAR=2000
DGENRE=Blues
TTITLE0=Sittin' On Top of the World 
TTITLE1=Cluck Old Hen
TTITLE2=Everybody Love Everybody
TTITLE3=I Want to Go Home 
TTITLE4=Single Girl, Married Girl
TTITLE5=Get Along
TTITLE6=John Hardy Was a Desperate Little Man
TTITLE7=Sugar Baby
TTITLE8=Blackberry Blossom
TTITLE9=If I Could I Surely Would
TTITLE10=Cluck Old Hen reprise
TTITLE11=Cold Cold Heart
TTITLE12=I Know You Care
TTITLE13=Goodnight Irene
TTITLE14=Big Shoe
TTITLE15=The Willies
TTITLE16=Bonus
EXTD=
EXTT0=
EXTT1=
EXTT2=
EXTT3=
EXTT4=
EXTT5=
EXTT6=
EXTT7=
EXTT8=
EXTT9=
EXTT10=
EXTT11=
EXTT12=
EXTT13=
EXTT14=
EXTT15=
EXTT16=
PLAYORDER=
